# xmcd
# 
# Track frame offsets:
#     150
#     17967
#     30865
#     43912
# 
# Disc length: 814
# 
# Revision: 3
# Processed by: cddbd v1.5.2PL0 Copyright (c) Steve Scherf et al.
# Submitted via: BonkEnc v1.0
# 
DISCID=28032c04
DTITLE=Lisa Loeb and Nine Stories - Do You Sleep?( UK CD5 Single )
DYEAR=1995
DGENRE=Rock
TTITLE0=Do You Sleep?
TTITLE1=Birds
TTITLE2=When All the Stars Were Falling
TTITLE3=Hurricane
EXTD=
EXTT0=
EXTT1=
EXTT2=
EXTT3=
PLAYORDER=
